<?xml version="1.0" encoding="utf-8"?>
<!-- Generator: Adobe Illustrator 25.3.1, SVG Export Plug-In . SVG Version: 6.00 Build 0)  -->
<svg version="1.1" id="Layer_1" xmlns="http://www.w3.org/2000/svg" xmlns:xlink="http://www.w3.org/1999/xlink" x="0px" y="0px"
	 viewBox="0 0 478.9 478.5" style="enable-background:new 0 0 478.9 478.5;" xml:space="preserve">
<style type="text/css">
	.st0{fill:none;}
</style>
<g>
	<polygon class="st0" points="239.4,117.3 273.5,0 273.2,122.1 338.9,19.2 304.2,136.3 396.2,56 329.9,158.6 440.9,107.6 
		348.3,187.3 469.2,169.5 357.9,220 478.9,237 357.9,254 469.2,304.5 348.3,286.7 440.9,366.5 329.9,315.4 396.2,418 304.2,337.7 
		338.9,454.8 273.2,351.9 273.5,474 239.4,356.7 205.4,474 205.7,351.9 140,454.8 174.7,337.7 82.6,418 149,315.4 38,366.5 
		130.5,286.7 9.7,304.5 120.9,254 0,237 120.9,220 9.7,169.5 130.5,187.3 38,107.6 149,158.6 82.6,56 174.7,136.3 140,19.2 
		205.7,122.1 205.4,0 	"/>
</g>
</svg>
